{"title":"Who Framed Roger Rabbit(1988)MPEG-4[DaScubaDude]","uid":15235303,"size":1191000489,"categoryP":"video","categoryS":"movies","magnet":"?xt=urn:btih:7329e104cf8c619387082334fb1aea483470ad92&amp;dn=Who+Framed+Roger+Rabbit%281988%29MPEG-4%5BDaScubaDude%5D&amp;tr=udp%3A%2F%2Ftracker.leechers-paradise.org%3A6969&amp;tr=udp%3A%2F%2Fzer0day.ch%3A1337&amp;tr=udp%3A%2F%2Fopen.demonii.com%3A1337&amp;tr=udp%3A%2F%2Ftracker.coppersurfer.tk%3A6969&amp;tr=udp%3A%2F%2Fexodus.desync.com%3A6969","seeders":0,"leechers":1,"uploader":"dascuba","files":1,"time":1467876459,"description":"Who Framed Roger Rabbit (1988)\r\nPG | 1h 44min | Animation, Comedy, Crime | 22 June 1988 (USA)\r\nA toon-hating detective is a cartoon rabbit's only hope to prove his innocence when he is accused of murder.\r\nDirector: Robert Zemeckis\r\nWriters: Gary K. Wolf (novel), Jeffrey Price (screenplay) |\r\nStars: Bob Hoskins, Christopher Lloyd, Joanna Cassidy |\r\n\r\nGeneral\r\nComplete name                            : Who Framed RRWho Framed Roger Rabbit_Title1.mp4\r\nFormat                                   : MPEG-4\r\nFormat profile                           : Base Media\r\nCodec ID                                 : isom (isom/iso2/avc1/mp41)\r\nFile size                                : 1.11 GiB\r\nDuration                                 : 1h 43mn\r\nOverall bit rate                         : 1 529 Kbps\r\nMovie name                               : Who_Framed_Roger_Rabbit\r\nGenre                                    : Comedy\r\nWriting application                      : Lavf54.6.100\r\n\r\nVideo\r\nID                                       : 1\r\nFormat                                   : AVC\r\nFormat/Info                              : Advanced Video Codec\r\nFormat profile                           :   \r\nFormat settings, CABAC                   : No\r\nFormat settings, ReFrames                : 6 frames\r\nCodec ID                                 : avc1\r\nCodec ID/Info                            : Advanced Video Coding\r\nDuration                                 : 1h 43mn\r\nBit rate                                 : 1 202 Kbps\r\nWidth                                    : 720 pixels\r\nHeight                                   : 404 pixels\r\nDisplay aspect ratio                     : 16:9\r\nFrame rate mode                          : Constant\r\nFrame rate                               : 29.970 (30000/1001) fps\r\nColor space                              : YUV\r\nChroma subsampling                       : 4:2:0\r\nBit depth                                : 8 bits\r\nScan type                                : Progressive\r\nBits/(Pixel*Frame)                       : 0.138\r\nStream size                              : 892 MiB (79%)\r\n\r\nAudio\r\nID                                       : 2\r\nFormat                                   : AAC\r\nFormat/Info                              : Advanced Audio Codec\r\nFormat profile                           : LC\r\nCodec ID                                 : 40\r\nDuration                                 : 1h 43mn\r\nBit rate mode                            : Constant\r\nBit rate                                 : 321 Kbps\r\nChannel(s)                               : 2 channels\r\nChannel(s)_Original                      : 6 channels\r\nChannel positions                        : Front: L C R, Side: L R, LFE\r\nSampling rate                            : 44.1 KHz\r\nFrame rate                               : 43.066 fps (1024 spf)\r\nCompression mode                         : Lossy\r\nStream size                              : 239 MiB (21%)\r\nDefault                                  : Yes\r\nAlternate group                          : 1","torrent":{"xt":"urn:btih:7329e104cf8c619387082334fb1aea483470ad92","amp;dn":"Who+Framed+Roger+Rabbit%281988%29MPEG-4%5BDaScubaDude%5D","amp;tr":["udp%3A%2F%2Ftracker.leechers-paradise.org%3A6969","udp%3A%2F%2Fzer0day.ch%3A1337","udp%3A%2F%2Fopen.demonii.com%3A1337","udp%3A%2F%2Ftracker.coppersurfer.tk%3A6969","udp%3A%2F%2Fexodus.desync.com%3A6969"],"infoHash":"7329e104cf8c619387082334fb1aea483470ad92","infoHashBuffer":{"type":"Buffer","data":[115,41,225,4,207,140,97,147,135,8,35,52,251,26,234,72,52,112,173,146]},"announce":[],"urlList":[]}}